<?xml version="1.0" encoding="utf-8"?>
<!-- Generator: Adobe Illustrator 26.0.1, SVG Export Plug-In . SVG Version: 6.00 Build 0)  -->
<svg version="1.1" xmlns="http://www.w3.org/2000/svg" xmlns:xlink="http://www.w3.org/1999/xlink" x="0px" y="0px"
	 viewBox="0 0 1920 1080" style="enable-background:new 0 0 1920 1080;" xml:space="preserve">
<style type="text/css">
	.st0{fill:#DBDDFF;}
	.st1{fill:#A5ABFF;}
	.st2{fill:#C9CDFF;}
	.st3{fill:#FFFFFF;}
	.st4{fill:#FFFFFF;stroke:#444AB4;stroke-width:0.9443;stroke-miterlimit:10;}
	.st5{fill:#FFA8DC;}
	.st6{fill:#444AB4;}
	.st7{fill:#FFFFFF;stroke:#444AB4;stroke-width:0.8101;stroke-miterlimit:10;}
	.st8{fill:none;stroke:#A5ABFF;stroke-width:1.5616;stroke-miterlimit:10;}
	.st9{fill:none;stroke:#A5ABFF;stroke-width:2;stroke-miterlimit:10;}
	.st10{fill:none;stroke:#8F92D2;stroke-width:1.1916;stroke-miterlimit:10;}
	.st11{fill:none;stroke:#8F92D2;stroke-width:0.7629;stroke-miterlimit:10;}
	.st12{fill:none;stroke:#C9CDFF;stroke-width:0.5841;stroke-miterlimit:10;}
	.st13{fill:none;stroke:#FFFFFF;stroke-miterlimit:10;}
	.st14{fill:#FF9A63;}
	.st15{fill:#000100;}
	.st16{fill:none;stroke:#FFFFFF;stroke-width:0.9993;stroke-miterlimit:10;}
	.st17{fill:#35281F;}
	.st18{fill:none;stroke:#A5ABFF;stroke-miterlimit:10;}
	.st19{fill:#A4C4FF;}
	.st20{fill:none;stroke:#A5ABFF;stroke-width:1.4109;stroke-miterlimit:10;}
	.st21{fill:none;stroke:#D2D5DA;stroke-width:1.0381;stroke-miterlimit:10;}
	.st22{fill:#1F2E48;}
	.st23{fill:#D2D5DA;}
	.st24{fill:none;stroke:#FFFFFF;stroke-width:1.0381;stroke-miterlimit:10;}
	.st25{fill:#FF9A63;stroke:#231F20;stroke-width:0.4848;stroke-miterlimit:10;}
	.st26{fill:#AF4E2F;}
	.st27{fill:#F6AB78;}
	.st28{fill:#091014;}
	.st29{fill:none;stroke:#000100;stroke-width:0.2446;stroke-miterlimit:10;}
	.st30{fill:none;stroke:#35281F;stroke-width:0.2446;stroke-miterlimit:10;}
	.st31{fill:none;stroke:#1F2E48;stroke-miterlimit:10;}
	.st32{fill:none;stroke:#D2D5DA;stroke-width:1.0916;stroke-miterlimit:10;}
	.st33{fill:none;stroke:#FFFFFF;stroke-width:1.0916;stroke-miterlimit:10;}
	.st34{fill:none;stroke:#1F2E48;stroke-width:2;stroke-miterlimit:10;}
</style>
<g id="Bg">
	<g>
		<path class="st0" d="M374.04,985.06c-56.18-58.62-94.94-136.49-95.87-217.69s39.95-164.31,110.89-203.82
			c68.06-37.9,154.08-33.45,220.69-73.85c57.02-34.58,90.68-96.15,130.21-149.87c46.58-63.3,106.83-119.97,181.5-144.48
			s165.28-10.68,217.42,48.13c47.62,53.71,62.52,139.89,128.31,168.62c40.27,17.59,86.63,6.78,130.47,9.82
			c77.67,5.39,146.3,55.17,195.4,115.59c50.16,61.72,85.2,144.3,62.42,220.51c-6.52,21.8-17.58,42.47-20.03,65.09
			c-3.19,29.5,8.59,58.37,12.15,87.82c3.56,29.45-5.43,65.2-33.34,75.26"/>
	</g>
</g>
<g id="Wheel">
	<g>
		<g>
			<path class="st1" d="M1612.74,632.45c-30.88,1.42-56.31-24.01-54.89-54.89c1.24-26.92,23.04-48.73,49.97-49.97
				c30.88-1.42,56.31,24.01,54.89,54.89C1661.47,609.41,1639.66,631.21,1612.74,632.45z M1612.74,542.38
				c-22.73-1.45-41.55,17.37-40.1,40.1c1.2,18.79,16.38,33.97,35.17,35.17c22.73,1.45,41.55-17.37,40.1-40.1
				C1646.71,558.76,1631.53,543.58,1612.74,542.38z"/>
		</g>
		<g>
			<path class="st1" d="M1623.77,538.66h-27.08v-18.15c0-4.93,4-8.93,8.93-8.93h9.22c4.93,0,8.93,4,8.93,8.93V538.66z"/>
		</g>
		<g>
			<path class="st1" d="M1594.03,539.66l-20.74,17.4l-10.53-12.54c-3.8-4.53-3.21-11.28,1.32-15.08l4.34-3.65
				c4.53-3.8,11.28-3.21,15.08,1.32L1594.03,539.66z"/>
		</g>
		<path class="st1" d="M1571.89,559.54l-4.7,26.67l-19.62-3.46c-3.89-0.69-6.49-4.39-5.8-8.28l2.22-12.58
			c0.69-3.89,4.39-6.49,8.28-5.8L1571.89,559.54z"/>
		<path class="st1" d="M1567.71,589.01l13.54,23.45l-14.7,8.49c-4.83,2.79-11,1.13-13.79-3.7l-3.44-5.96
			c-2.79-4.83-1.13-11,3.7-13.79L1567.71,589.01z"/>
		<g>
			<path class="st1" d="M1583.44,614.27l25.44,9.26l-6.64,18.24c-1.45,3.98-5.85,6.03-9.83,4.58l-11.03-4.02
				c-3.98-1.45-6.03-5.85-4.58-9.83L1583.44,614.27z"/>
		</g>
		<g>
			<path class="st1" d="M1612.94,625.48l25.44-9.26l5.56,15.27c2.04,5.62-0.85,11.83-6.47,13.87l-5.1,1.86
				c-5.62,2.04-11.83-0.85-13.87-6.47L1612.94,625.48z"/>
		</g>
		<g>
			<path class="st1" d="M1639.34,612.39l13.54-23.45l18.18,10.5c2.91,1.68,3.91,5.4,2.23,8.31l-7.46,12.91
				c-1.68,2.91-5.4,3.91-8.31,2.23L1639.34,612.39z"/>
		</g>
		<g>
			<path class="st1" d="M1653.35,586.13l-4.7-26.67l19.92-3.51c3.73-0.66,7.28,1.83,7.94,5.56l2.32,13.17
				c0.66,3.73-1.83,7.28-5.56,7.94L1653.35,586.13z"/>
		</g>
		<g>
			<path class="st1" d="M1647.2,557.01l-20.74-17.4l11.78-14.04c3.11-3.7,8.63-4.19,12.33-1.08l7.33,6.15
				c3.7,3.11,4.19,8.63,1.08,12.33L1647.2,557.01z"/>
		</g>
	</g>
</g>
<g id="Wheel_00000083783700165359481990000008505923744283271048_">
	<g>
		<g>
			<path class="st2" d="M800.36,216.78c-30.88,1.42-56.31-24.01-54.89-54.89c1.24-26.92,23.04-48.73,49.97-49.97
				c30.88-1.42,56.31,24.01,54.89,54.89C849.09,193.73,827.29,215.54,800.36,216.78z M800.37,126.71
				c-22.73-1.45-41.55,17.37-40.1,40.1c1.2,18.79,16.38,33.97,35.17,35.17c22.73,1.45,41.55-17.37,40.1-40.1
				C834.33,143.09,819.16,127.91,800.37,126.71z"/>
		</g>
		<g>
			<path class="st2" d="M811.4,122.98h-27.08v-18.15c0-4.93,4-8.93,8.93-8.93h9.22c4.93,0,8.93,4,8.93,8.93V122.98z"/>
		</g>
		<g>
			<path class="st2" d="M781.66,123.98l-20.74,17.4l-10.53-12.54c-3.8-4.53-3.21-11.28,1.32-15.08l4.34-3.65
				c4.53-3.8,11.28-3.21,15.08,1.32L781.66,123.98z"/>
		</g>
		<path class="st2" d="M759.51,143.87l-4.7,26.67l-19.62-3.46c-3.89-0.69-6.49-4.39-5.8-8.28l2.22-12.58
			c0.69-3.89,4.39-6.49,8.28-5.8L759.51,143.87z"/>
		<path class="st2" d="M755.33,173.33l13.54,23.45l-14.7,8.49c-4.83,2.79-11,1.13-13.79-3.7l-3.44-5.96
			c-2.79-4.83-1.13-11,3.7-13.79L755.33,173.33z"/>
		<g>
			<path class="st2" d="M771.07,198.59l25.44,9.26l-6.64,18.24c-1.45,3.98-5.85,6.03-9.83,4.58l-11.03-4.02
				c-3.98-1.45-6.03-5.85-4.58-9.83L771.07,198.59z"/>
		</g>
		<g>
			<path class="st2" d="M800.57,209.81l25.44-9.26l5.56,15.27c2.04,5.62-0.85,11.83-6.47,13.87l-5.1,1.86
				c-5.62,2.04-11.83-0.85-13.87-6.47L800.57,209.81z"/>
		</g>
		<g>
			<path class="st2" d="M826.97,196.72l13.54-23.45l18.18,10.5c2.91,1.68,3.91,5.4,2.23,8.31l-7.46,12.91
				c-1.68,2.91-5.4,3.91-8.31,2.23L826.97,196.72z"/>
		</g>
		<g>
			<path class="st2" d="M840.98,170.46l-4.7-26.67l19.92-3.51c3.73-0.66,7.28,1.83,7.94,5.56l2.32,13.17
				c0.66,3.73-1.83,7.28-5.56,7.94L840.98,170.46z"/>
		</g>
		<g>
			<path class="st2" d="M834.83,141.34l-20.74-17.4l11.78-14.04c3.11-3.7,8.63-4.19,12.33-1.08l7.33,6.15
				c3.7,3.11,4.19,8.63,1.08,12.33L834.83,141.34z"/>
		</g>
	</g>
</g>
<g id="Wheel_00000095318182313088084050000003683565703484015500_">
	<g>
		<g>
			<path class="st3" d="M510.09,816.02c-30.88,1.42-56.31-24.01-54.89-54.89c1.24-26.92,23.04-48.73,49.97-49.97
				c30.88-1.42,56.31,24.01,54.89,54.89C558.82,792.97,537.01,814.78,510.09,816.02z M510.09,725.95
				c-22.73-1.45-41.55,17.37-40.1,40.1c1.2,18.79,16.38,33.97,35.17,35.17c22.73,1.45,41.55-17.37,40.1-40.1
				C544.06,742.33,528.88,727.15,510.09,725.95z"/>
		</g>
		<g>
			<path class="st3" d="M521.12,722.23h-27.08v-18.15c0-4.93,4-8.93,8.93-8.93h9.22c4.93,0,8.93,4,8.93,8.93V722.23z"/>
		</g>
		<g>
			<path class="st3" d="M491.38,723.22l-20.74,17.4l-10.53-12.54c-3.8-4.53-3.21-11.28,1.32-15.08l4.34-3.65
				c4.53-3.8,11.28-3.21,15.08,1.32L491.38,723.22z"/>
		</g>
		<path class="st3" d="M469.24,743.11l-4.7,26.67l-19.62-3.46c-3.89-0.69-6.49-4.39-5.8-8.28l2.22-12.58
			c0.69-3.89,4.39-6.49,8.28-5.8L469.24,743.11z"/>
		<path class="st3" d="M465.06,772.58l13.54,23.45l-14.7,8.49c-4.83,2.79-11,1.13-13.79-3.7l-3.44-5.96
			c-2.79-4.83-1.13-11,3.7-13.79L465.06,772.58z"/>
		<g>
			<path class="st3" d="M480.79,797.83l25.44,9.26l-6.64,18.24c-1.45,3.98-5.85,6.03-9.83,4.58l-11.03-4.02
				c-3.98-1.45-6.03-5.85-4.58-9.83L480.79,797.83z"/>
		</g>
		<g>
			<path class="st3" d="M510.29,809.05l25.44-9.26l5.56,15.27c2.04,5.62-0.85,11.83-6.47,13.87l-5.1,1.86
				c-5.62,2.04-11.83-0.85-13.87-6.47L510.29,809.05z"/>
		</g>
		<g>
			<path class="st3" d="M536.69,795.96l13.54-23.45l18.18,10.5c2.91,1.68,3.91,5.4,2.23,8.31l-7.46,12.91
				c-1.68,2.91-5.4,3.91-8.31,2.23L536.69,795.96z"/>
		</g>
		<g>
			<path class="st3" d="M550.7,769.7l-4.7-26.67l19.92-3.51c3.73-0.66,7.28,1.83,7.94,5.56l2.32,13.17
				c0.66,3.73-1.83,7.28-5.56,7.94L550.7,769.7z"/>
		</g>
		<g>
			<path class="st3" d="M544.55,740.58l-20.74-17.4l11.78-14.04c3.11-3.7,8.63-4.19,12.33-1.08l7.33,6.15
				c3.7,3.11,4.19,8.63,1.08,12.33L544.55,740.58z"/>
		</g>
	</g>
</g>
<g id="Youtube">
	<g>
		<rect x="550.23" y="297.14" class="st1" width="199.02" height="157.91"/>
		<rect x="555.21" y="293.14" class="st4" width="199.02" height="157.91"/>
	</g>
	<circle class="st5" cx="654.72" cy="372.09" r="43.06"/>
	<polygon class="st6" points="645.18,352.6 645.18,384.9 668.76,369.75 	"/>
</g>
<g id="Shape_00000013878358993892569720000006033889540881448378_">
	<path class="st7" d="M1523.04,222.46H1241.9c-11.21,0-20.3-9.09-20.3-20.3v0c0-11.21,9.09-20.3,20.3-20.3h281.14
		c11.21,0,20.3,9.09,20.3,20.3v0C1543.34,213.37,1534.25,222.46,1523.04,222.46z"/>
</g>
<g id="Sarch">
	<g>
		<circle class="st8" cx="1241.97" cy="200.5" r="10.16"/>
		<line class="st9" x1="1246.45" y1="208.66" x2="1254.9" y2="221.46"/>
	</g>
</g>
<g id="Leaf">
	<g>
		<path class="st6" d="M1555.38,955.5c3.26,4.43,12.03,1.08,15.64-2.22c4.15-3.78,6.46-9.15,8.2-14.49
			c1.74-5.34,3.07-10.87,5.77-15.79c3.97-7.26,10.96-11.78,15.5-18.48c4.49-6.62,4.08-14.2,2.66-21.94
			c-2.72-14.81-2.23-31.26,8.66-42.43c3.74-3.84,6.98-8.13,9.97-12.58l37.74-56.12c3.42-5.08,5.76-10.85,6.58-16.92
			c1.04-7.61-0.2-15.87-11.02-14.52c-5.83,0.73-16.71,16.71-20.15,20.67c-16.24,18.71-30.24,39.4-41.87,61.28
			c-11.63,21.9-20.85,45.07-27.38,69c-3.7,13.55-6.53,27.33-8.49,41.24c-0.71,5.06-4.47,17.69-2.4,22.31
			C1554.96,954.87,1555.16,955.2,1555.38,955.5z"/>
		<path class="st10" d="M1649.48,759.08c0,0-98.37,120.06-99.69,231.6"/>
	</g>
</g>
<g id="Leaf_00000127731753652070828490000005177571164616310183_">
	<path class="st6" d="M1525.63,920.94c0,0-20.79-166.32,43.27-245.42c2.47-3.04,6.65-4.33,10.24-2.76
		c4.69,2.05,9.09,8.99,5.45,29.74c0,0-9.29,37.45-19.58,58.54c-4.79,9.82-7.02,20.75-5.86,31.62c0.24,2.23,0.61,4.37,1.15,6.28
		c2.24,7.85-5.44,23.87-9.63,31.74c-2.01,3.77-3.23,7.9-3.57,12.16c-0.01,0.1-0.02,0.2-0.02,0.3c-0.91,12.03-3.65,23.86-8.31,34.99
		h0c-0.25,0.6-0.41,1.23-0.49,1.87C1537.56,886.69,1532.87,925.95,1525.63,920.94z"/>
	<path class="st10" d="M1564.58,695.2c0,0-40.7,108.31-39.54,293.28"/>
</g>
<g id="Leaf_00000122686750991527154070000013576331133925891716_">
	<g>
		<path class="st6" d="M392.7,965.2c-2.09,2.84-7.7,0.69-10.02-1.42c-2.66-2.42-4.13-5.86-5.25-9.28
			c-1.12-3.42-1.97-6.96-3.69-10.11c-2.54-4.65-7.02-7.55-9.92-11.83c-2.87-4.24-2.61-9.09-1.7-14.05
			c1.74-9.48,1.43-20.02-5.55-27.17c-2.4-2.46-4.47-5.21-6.38-8.06l-24.17-35.93c-2.19-3.25-3.68-6.95-4.21-10.83
			c-0.66-4.87,0.13-10.16,7.06-9.3c3.74,0.47,10.7,10.7,12.9,13.24c10.4,11.98,19.36,25.23,26.81,39.24
			c7.45,14.02,13.35,28.86,17.53,44.18c2.37,8.67,4.18,17.5,5.44,26.4c0.46,3.24,2.86,11.33,1.54,14.29
			C392.97,964.8,392.84,965.01,392.7,965.2z"/>
		<path class="st11" d="M332.45,839.44c0,0,62.99,76.87,63.83,148.29"/>
	</g>
</g>
<g id="Layer_9">
</g>
<g id="Phone">
	<g>
		<g>
			<path class="st1" d="M1190.74,986.13H815.52c-14.26,0-25.82-11.56-25.82-25.82v-794.2c0-14.26,11.56-25.82,25.82-25.82h375.22
				c14.26,0,25.82,11.56,25.82,25.82v794.2C1216.56,974.57,1205,986.13,1190.74,986.13z"/>
			<path class="st4" d="M1178.19,977.37H828.83c-14.26,0-25.75-11.54-25.68-25.78l4.2-774.54c0.08-14.24,11.7-25.78,25.96-25.78
				h349.36c14.26,0,25.75,11.54,25.68,25.78l-4.2,774.54C1204.07,965.82,1192.45,977.37,1178.19,977.37z"/>
		</g>
		<path class="st1" d="M1054.51,164.06H963c-4.34,0-7.86-3.52-7.86-7.86v0c0-4.34,3.52-7.86,7.86-7.86h91.51
			c4.34,0,7.86,3.52,7.86,7.86v0C1062.37,160.54,1058.85,164.06,1054.51,164.06z"/>
	</g>
</g>
<g id="Box">
	<rect x="1068.43" y="507.34" class="st1" width="43.61" height="32.88"/>
	<rect x="1068.43" y="548.01" class="st1" width="43.61" height="32.88"/>
	<rect x="1067.43" y="589.56" class="st1" width="43.61" height="32.88"/>
</g>
<g id="Window">
	<g>
		<rect x="860.67" y="509.28" class="st12" width="150.98" height="105.91"/>
		<polygon class="st2" points="860.67,615.19 936.16,555.59 952.34,573.61 1011.65,534.25 1011.65,615.19 		"/>
		<circle class="st2" cx="957.1" cy="528.93" r="12.6"/>
	</g>
</g>
<g id="Line_00000143617881638164554990000012887375092207895720_">
	<rect x="845.04" y="412.8" class="st1" width="216.33" height="4.52"/>
	<rect x="845.97" y="429.63" class="st1" width="216.33" height="4.6"/>
	<rect x="847.04" y="447.59" class="st1" width="188.18" height="4.6"/>
</g>
<g id="Shape_00000134953782571260636260000010115841988583689397_">
	<path class="st5" d="M985,380.22H853.97c-7.88,0-14.27-6.39-14.27-14.27v-116.4c0-7.88,6.39-14.27,14.27-14.27H985
		c7.88,0,14.27,6.39,14.27,14.27v116.4C999.27,373.84,992.88,380.22,985,380.22z"/>
	<circle class="st13" cx="920.7" cy="306.32" r="61.24"/>
</g>
<g id="Cricle">
	<path class="st1" d="M958.12,304.81c0,20.23-16.4,36.63-36.63,36.63c-20.23,0-36.63-16.4-36.63-36.63s16.4-36.63,36.63-36.63v36.63
		H958.12z"/>
</g>
<g id="B2_Neck">
	<g>
		<polygon class="st14" points="728.99,632.11 722.17,661.55 689.01,652.35 699.93,605.25 731.8,614.61 		"/>
		<path d="M727.43,638.59l-0.75-0.93c-11.85-10.64-15.31-11.9-15.31-11.9l15.16,16.37L727.43,638.59z"/>
	</g>
</g>
<g id="B2_Face">
	<g>
		<path d="M749.7,554.11c3.79,0.09,7.52,1.71,10.19,4.42c1.32,1.34,2.41,3,2.67,4.87c0.52,3.71-12.32,17.01-14.89,19.73
			c-0.64-1.17-13.77-14.84-3.13-18.03c2.58-0.77,8.65-0.29,6.39-1.75c-1.05-0.68-2.25-1.11-3.29-1.81c-1.04-0.7-1.95-1.78-1.95-3.03
			c0-1.6,1.44-2.81,2.84-3.58c1.45-0.79,3.02-1.37,4.64-1.72"/>
	</g>
	<path class="st14" d="M760.88,593.08c2.23,7.99,3.4,11.26,3.88,17.85c1.14,15.87-8.13,29.55-24.97,27.85
		c-13.2-1.34-20.89-6.84-30.21-15.56c-8.1-7.58-17.93-15.23-22.52-25.53c-6.06-13.63,4.41-25.38,14.91-33.37
		c1.34-1.02,2.71-1.99,4.1-2.92c9.98-6.64,22.69-10.5,33.84-4.94c10.61,5.29,17.18,18.4,20.91,31.79"/>
	<g>
		<path class="st14" d="M761.51,596.57c0.55,1.55,2.15,3.43,3.53,4.33c0.59,0.38,1.29,0.61,1.77,1.12c1.02,1.08,0.52,2.98-0.63,3.92
			c-1.15,0.94-2.7,1.19-4.17,1.4"/>
	</g>
	<g>
		<g>
			<path d="M760.11,614.78c1.45-0.07,2.91-0.13,4.36-0.2c0.32-0.01,0.32-0.51,0-0.5c-1.45,0.07-2.91,0.13-4.36,0.2
				C759.79,614.3,759.79,614.8,760.11,614.78L760.11,614.78z"/>
		</g>
	</g>
	<path d="M758.68,586.1c0,0,0.33,0.96-1.1,1.14c-1.09,0.14-2.8,0.58-3.41,0.79c-0.35,0.12-0.74,0.02-0.94-0.25l0,0
		c-0.15-0.21-0.15-0.48,0.03-0.69c0.35-0.42,2.12-1.44,3.44-1.63C758.41,585.23,758.68,586.1,758.68,586.1z"/>
	
		<ellipse transform="matrix(0.9277 -0.3734 0.3734 0.9277 -167.2036 325.7943)" class="st15" cx="757.42" cy="594.53" rx="1.79" ry="1.79"/>
	
		<ellipse transform="matrix(0.0901 -0.9959 0.9959 0.0901 99.755 1296.3898)" class="st16" cx="759.33" cy="593.6" rx="9.68" ry="1.55"/>
	<line class="st16" x1="723.86" y1="589.61" x2="757.71" y2="594.3"/>
	<g>
		<path d="M740.05,547.39c21.07-13.86,15.78,11.14,12.72,17.98c-2.16,4.83-7.05,10.04-12.18,11.31
			c-17.39,4.31-13.35,18.37-18.37,20.02c-1.26,0.42-5.09,3.84-6.07,4.74c0,0-11.19,20.76-20.32,23.48
			c-3.7-8.59-9.6-16.08-13.43-24.62c-3.73-8.32-2.92-21.73,1.49-29.71c2.03-3.68,4.83-6.31,7.51-9.61c6.9-8.5,10.95-3.23,8.4-1.37
			c-3.42,2.49,2.46-8.78,13.68-8.59c-0.2,0.7,2.49,1.47,2.3,2.16c3.98-4.42,9.34-7.57,15.12-8.94c1.42-0.34,2.81,0.68,2.88,2.14l0,0
			c2.41-0.57,4.98-0.42,7.32,0.41"/>
	</g>
	<g>
		<g>
			<path class="st14" d="M725.61,599.86c-0.52,0.99-1.13,2.41-2.44,2.5c-6.85,0.48-9.37-10.4-9.38-13.2
				c-0.01-3.23,1.46-7.16,6.21-7.74c2.12-0.26,3.62,0.98,5.02,2.83l3.14,4.58"/>
			<path class="st14" d="M715.97,597.09c0,0,4.96,10.56,10.84,2.62"/>
			<path class="st17" d="M723.23,585.59c0,0-3.6-3.03-6.39-0.05c-1.38,1.48-1.68,3.67-0.94,5.56l2,5.03
				C717.9,596.14,713.49,583.97,723.23,585.59z"/>
		</g>
		<path class="st17" d="M726.78,599.87c-3.01,4.35-7.27,3.65-9.8-0.73c-0.7-1.15-1.23-2.39-1.7-3.65c0.64,1.18,1.23,2.37,1.99,3.46
			C719.85,603.05,723.51,603.64,726.78,599.87L726.78,599.87z"/>
	</g>
	<g id="Layer_55">
	</g>
</g>
<g id="Window_00000133487027405891427160000003444826898312508595_">
	<g>
		<path class="st4" d="M1260.17,912.54H930.1c-10.49,0-19-8.5-19-19V714.2c0-10.49,8.5-19,19-19h330.06c10.49,0,19,8.5,19,19v179.34
			C1279.16,904.03,1270.66,912.54,1260.17,912.54z"/>
		<line class="st4" x1="915.11" y1="724.88" x2="1275.89" y2="727"/>
		<circle class="st4" cx="934.17" cy="711.13" r="3.99"/>
		<circle class="st4" cx="951.14" cy="711.13" r="3.99"/>
		<circle class="st4" cx="969.86" cy="712.13" r="3.99"/>
	</g>
</g>
<g id="Lines_00000034808483492265919790000008507050414710554264_">
	<rect x="934.17" y="746.96" class="st1" width="169.98" height="38.96"/>
	<rect x="936.16" y="804.74" class="st1" width="179.78" height="4.16"/>
	<rect x="936.16" y="816.76" class="st1" width="179.78" height="4.16"/>
	<rect x="936.16" y="828.78" class="st1" width="179.78" height="4.16"/>
	<rect x="936.16" y="840.8" class="st1" width="179.78" height="4.16"/>
	<rect x="936.16" y="852.82" class="st1" width="126.21" height="4.16"/>
	<rect x="936.16" y="872.91" class="st1" width="89.89" height="19.58"/>
</g>
<g id="Cricle_Grap">
	<polyline class="st18" points="1168.49,882.75 1128.34,882.75 1128.34,856.98 	"/>
	<polyline class="st18" points="1264.01,846.96 1264.01,882.75 1230.89,882.75 	"/>
	<polyline class="st18" points="1223.61,746.96 1264.01,746.96 1264.01,785.92 	"/>
	<polyline class="st18" points="1128.34,775.23 1128.34,746.96 1160.83,746.96 	"/>
	<g>
		<path class="st5" d="M1233.89,833.29l-37.47-20.01l-14.83,39.82C1181.6,853.09,1217,862.63,1233.89,833.29z"/>
		<path class="st19" d="M1181.6,853.09c-20.67-11.04-23.27-21-23.27-21c-12.73-32.84,13.49-53.46,13.49-53.46l24.6,34.65
			L1181.6,853.09z"/>
		
			<ellipse transform="matrix(0.3622 -0.9321 0.9321 0.3622 4.9914 1633.8525)" class="st20" cx="1196.42" cy="813.28" rx="42.48" ry="42.48"/>
	</g>
</g>
<g id="B2_LThigh">
	<path class="st6" d="M615.88,810.54l-18.06,124.95c-3.62,24.22,13.03,40.84,37.31,44.09c0.51,0.07,8.12-0.66,8.64-0.6
		c15.63,1.62,28.48-25.28,34.47-39.81l38.37-93.1C713.8,773.25,624.38,773.25,615.88,810.54z"/>
</g>
<g id="B2_L_LEg">
	<g>
		<path class="st14" d="M507.64,958.72H483.3c-9.78,0-17.7-7.92-17.7-17.7l0,0c0-9.78,7.92-17.7,17.7-17.7h24.34V958.72z"/>
		<path class="st6" d="M491.73,911.24l161.56,3.12c11.9,0.23,18.99,1.03,27.8,9.03c6.21,5.64,6.17,22.04,3.83,32.16
			c-5.79,25.01-21.34,28.63-38.82,29.04l-157.22-25.16L491.73,911.24z"/>
		<g>
			<g>
				<path class="st21" d="M477.11,965.79c0,0,17.98-4.38,18.25,0.28C495.62,970.73,483.63,970.83,477.11,965.79"/>
				<path class="st21" d="M475.51,967.33c0,0,16.21,7.16,12.52,10.76C484.34,981.7,475.86,974.84,475.51,967.33"/>
				<g>
					<path class="st22" d="M478.14,914.03l-29.58,0.94l-11.67,1.81l6.4,73.3l9.94-0.32c0,0,19.06-18.26,22.55-33.03l7.55,1.98
						l4.58-12.18l-11.78-1.61C476.12,944.91,488.04,914.97,478.14,914.03z"/>
					<path class="st23" d="M435.85,914.85l12.84-0.92l4.61,74.42c0.08,1.24-1.09,2.31-2.58,2.37l-8.06,0.23"/>
				</g>
				<line class="st24" x1="476.21" y1="965.36" x2="473.11" y2="958.99"/>
				<line class="st24" x1="474.66" y1="969.77" x2="470.37" y2="963.93"/>
			</g>
			<g>
				<g>
					<path class="st23" d="M465.52,970.32c-2.64-3.77-7.7-5.2-12.09-4.47c-0.66,0.11-0.38,1.11,0.28,1c3.9-0.64,8.57,0.65,10.92,4
						C465,971.39,465.9,970.87,465.52,970.32L465.52,970.32z"/>
				</g>
			</g>
			<g>
				<g>
					<path class="st23" d="M466.46,923.72c-2.63-1.72-6.49-1.63-9.09,0.11c-2.59,1.73-3.71,5.37-1.85,8.05
						c1.82,2.62,5.63,3.38,8.57,2.55c2.89-0.82,5.41-3.62,4.9-6.77c-0.6-3.67-5.1-5.24-8.34-4.49c-0.65,0.15-0.38,1.15,0.28,1
						c2.47-0.57,5.88,0.4,6.86,2.97c0.95,2.5-1,5.11-3.25,6.04c-2.4,0.99-5.68,0.64-7.59-1.21c-1.98-1.92-1.59-5.06,0.39-6.82
						c2.25-2,6.11-2.16,8.6-0.54C466.5,924.98,467.02,924.08,466.46,923.72L466.46,923.72z"/>
				</g>
			</g>
			<g>
				<g>
					<path class="st23" d="M473.07,958.77c-1.1-2.43-2.2-4.86-3.29-7.3c-0.2-0.43-0.83-0.26-0.95,0.12
						c-1.56,4.89-0.71,10.22,2.19,14.44c0.24-0.24,0.47-0.47,0.71-0.71c-3.25-1.96-6.5-3.93-9.75-5.89
						c-0.39-0.23-0.89,0.15-0.76,0.59c1.29,4.5,2.57,9.01,3.86,13.51c0.18,0.64,1.19,0.37,1-0.28c-1.29-4.5-2.57-9.01-3.86-13.51
						c-0.25,0.2-0.51,0.39-0.76,0.59c3.25,1.96,6.5,3.93,9.75,5.89c0.43,0.26,1.01-0.27,0.71-0.71c-2.76-4.01-3.57-9-2.09-13.64
						c-0.32,0.04-0.63,0.08-0.95,0.12c1.1,2.43,2.2,4.86,3.29,7.3C472.45,959.9,473.35,959.37,473.07,958.77L473.07,958.77z"/>
				</g>
			</g>
		</g>
	</g>
</g>
<g id="B2_R_Thigh">
	<g>
		<path class="st6" d="M659.91,857.2l7.88,10.25l90.17,95.91c16.81,17.81,45.13,22.04,62.68,4.96c0.37-0.36-42.93,28.81,1.1-4.26
			c17.28-12.98-1.11-47.98-8.83-61.67l-51.86-87.7c0,0-61.15-81.33-113.11-33.84c0,0-20.61,26.43-2.83,53.13
			C653.07,845.92,659.91,857.2,659.91,857.2z"/>
		<g>
			<g>
				<path class="st22" d="M650.12,861.64c7.83-4.07,15.85,2.21,20.59,8.02c2.53,3.1,4.75,6.43,7.39,9.45
					c2.83,3.24,5.87,6.3,8.85,9.4c3.26,3.39,6.53,6.81,9.32,10.6c0.89,1.21,2.95,0.03,2.04-1.19c-5.35-7.27-12.16-13.27-18.12-20
					c-5.6-6.33-9.8-14.76-17.91-18.29c-4.27-1.86-9.14-2.22-13.36-0.03C647.57,860.3,648.77,862.34,650.12,861.64L650.12,861.64z"/>
			</g>
		</g>
	</g>
</g>
<g id="B2_R_Leg">
	<path class="st14" d="M615.7,949.06h-6.64c-9.78,0-17.7-7.92-17.7-17.7v0c0-9.78,7.92-17.7,17.7-17.7h6.64
		c9.78,0,17.7,7.92,17.7,17.7v0C633.4,941.14,625.47,949.06,615.7,949.06z"/>
	<g>
		<path class="st6" d="M624.46,910.93l161.49,5.66c11.9,0.42,23.66,2.58,32.34,10.72c6.12,5.74,12.68,15.36,13.22,25.74
			c1.13,21.69-11.13,44.87-47.16,40.34L621.3,953.21L624.46,910.93z"/>
		<g>
			<g>
				<path class="st22" d="M784.59,920.9c-19.85-6.99-41.09-8-61.94-8.55c-20.83-0.55-41.65-1.16-62.48-1.79
					c-11.55-0.35-23.1-0.69-34.66-0.97c-0.68-0.02-1.12,0.56-1.18,1.18c-1.23,12.41-2.46,24.82-3.69,37.23
					c-0.17,1.73-0.34,3.47-0.52,5.2c-0.05,0.49,0.4,1.04,0.87,1.14c3.51,0.78,7.01,1.56,10.52,2.34c8.42,1.87,16.84,3.74,25.27,5.61
					c10.19,2.26,20.39,4.53,30.58,6.79c8.82,1.96,17.64,3.92,26.46,5.88c4.29,0.95,8.58,2.03,12.9,2.86
					c0.06,0.01,0.13,0.03,0.19,0.04c1.48,0.33,2.12-1.95,0.63-2.28c-3.51-0.78-7.01-1.56-10.52-2.34
					c-8.42-1.87-16.84-3.74-25.27-5.61c-10.19-2.26-20.39-4.53-30.58-6.79c-8.82-1.96-17.64-3.92-26.46-5.88
					c-2.93-0.65-5.86-1.3-8.79-1.95c-1.29-0.29-2.78-0.87-4.11-0.91c-0.06,0-0.13-0.03-0.19-0.04c0.29,0.38,0.58,0.76,0.87,1.14
					c1.23-12.41,2.46-24.82,3.69-37.23c0.17-1.73,0.34-3.47,0.52-5.2c-0.39,0.39-0.79,0.79-1.18,1.18
					c20.76,0.51,41.51,1.19,62.26,1.81c10.15,0.3,20.31,0.59,30.46,0.84c10.4,0.26,20.82,0.52,31.19,1.49
					c11.73,1.1,23.4,3.16,34.55,7.08C785.4,923.69,786.02,921.4,784.59,920.9L784.59,920.9z"/>
			</g>
		</g>
	</g>
	<g>
		<g>
			<path class="st21" d="M602.48,962.41c0,0,17.98-4.38,18.25,0.28C621,967.35,609,967.46,602.48,962.41"/>
			<path class="st21" d="M600.88,963.95c0,0,16.21,7.16,12.52,10.76C609.71,978.32,601.23,971.47,600.88,963.95"/>
			<g>
				<path class="st22" d="M603.51,910.65l-29.58,0.94l-11.67,1.81l6.4,73.3l9.94-0.32c0,0,19.06-18.26,22.55-33.03l7.54,1.98
					l4.58-12.18l-11.78-1.61C601.49,941.53,613.41,911.59,603.51,910.65z"/>
				<path class="st23" d="M561.22,911.47l12.84-0.92l4.61,74.42c0.08,1.24-1.09,2.31-2.58,2.37l-8.06,0.23"/>
			</g>
			<line class="st24" x1="601.58" y1="961.98" x2="598.48" y2="955.61"/>
			<line class="st24" x1="600.03" y1="966.39" x2="595.74" y2="960.55"/>
		</g>
		<g>
			<g>
				<path class="st23" d="M590.89,966.95c-2.64-3.77-7.7-5.2-12.09-4.47c-0.66,0.11-0.38,1.11,0.28,1c3.9-0.64,8.57,0.65,10.92,4
					C590.37,968.01,591.27,967.49,590.89,966.95L590.89,966.95z"/>
			</g>
		</g>
		<g>
			<g>
				<path class="st23" d="M591.83,920.34c-2.63-1.72-6.49-1.63-9.09,0.11c-2.59,1.73-3.71,5.37-1.85,8.05
					c1.82,2.62,5.63,3.38,8.57,2.55c2.89-0.82,5.41-3.62,4.9-6.77c-0.6-3.67-5.1-5.24-8.34-4.49c-0.65,0.15-0.38,1.15,0.28,1
					c2.47-0.57,5.88,0.4,6.86,2.97c0.95,2.5-1,5.11-3.25,6.04c-2.4,0.99-5.68,0.64-7.59-1.21c-1.98-1.92-1.59-5.06,0.39-6.82
					c2.25-2,6.11-2.16,8.6-0.54C591.87,921.6,592.39,920.7,591.83,920.34L591.83,920.34z"/>
			</g>
		</g>
		<g>
			<g>
				<path class="st23" d="M598.45,955.39c-1.1-2.43-2.2-4.86-3.29-7.3c-0.2-0.43-0.83-0.26-0.95,0.12
					c-1.56,4.89-0.71,10.22,2.19,14.44c0.24-0.24,0.47-0.47,0.71-0.71c-3.25-1.96-6.5-3.93-9.75-5.89
					c-0.39-0.23-0.89,0.15-0.76,0.59c1.29,4.5,2.57,9.01,3.86,13.51c0.18,0.64,1.19,0.37,1-0.28c-1.29-4.5-2.57-9.01-3.86-13.51
					c-0.25,0.2-0.51,0.39-0.76,0.59c3.25,1.96,6.5,3.93,9.75,5.89c0.43,0.26,1.01-0.27,0.71-0.71c-2.76-4.01-3.57-9-2.09-13.64
					c-0.32,0.04-0.63,0.08-0.95,0.12c1.1,2.43,2.2,4.86,3.29,7.3C597.82,956.52,598.72,955.99,598.45,955.39L598.45,955.39z"/>
			</g>
		</g>
	</g>
</g>
<g id="B2_L_Finger">
	<g>
		<path class="st14" d="M827.87,608.55c0,0,6.46-1.33,6.45,6.4c0,0,7.53,0.75,5.39,7.83c0,0,7.11,2.15,1.84,6.75l-7.77,7.73
			l-3.7-1.12c0,0-10.99,13.78-17.28,11.47c-4.98-1.83-11.07-0.82-13.9-9.71c-1.52-4.78-1.23-9.96,0.61-14.63l4.52-11.52l22.55-30.99
			c0,0,7.61-2.71-0.09,14.58l-11.75,20.39"/>
		<path class="st25" d="M811.46,608.57l16.41-6.54c0,0,3.98,5.94-6.06,13.31c0,0-1.88,15.7-16.33,14.67"/>
		<path class="st25" d="M816.88,625.94c0,0,2.26,5.61,5.79,1.75l11.65-12.74"/>
		<path class="st25" d="M821.6,629.56c0,0-0.47,5.78,7.37,5.23l10.74-12.01"/>
		<path class="st25" d="M828.96,634.79c0,0,0.47,2.71,4.81,2.47"/>
	</g>
</g>
<g id="B2_L_Hand">
	<path class="st14" d="M737.87,703.02l60.73-68.89c7.93-8.38,27.28-0.74,21.29,15.57l-44.64,73.91c-3.91,6.47-9.79,11.6-16.86,14.24
		c-0.15,0.06-0.3,0.11-0.45,0.17c-13.32,4.76-27-5.76-26.08-19.88C732.18,713.23,733.7,707.75,737.87,703.02z"/>
</g>
<g id="B2_R_Hand">
	<path class="st14" d="M812.59,733.5l56.7-64.31c3.15-3.58,7.5-5.97,12.24-6.48c7.59-0.82,12.11,2.08,13.17,9.12
		c0.66,4.37-0.38,8.83-2.66,12.61l-42.06,69.64c-3.91,6.47-9.79,11.6-16.86,14.24c-0.18,0.07-0.35,0.13-0.53,0.19
		c-13.42,4.76-27.02-5.93-25.99-20.13C806.95,743.54,808.49,738.15,812.59,733.5z"/>
</g>
<g id="B2_R_Finger">
	<g>
		<path class="st14" d="M870.1,669.37c-0.17-12.24-0.34-24.48-0.51-36.72c-0.02-1.39-0.02-2.86,0.68-4.06s2.35-1.97,3.52-1.23
			c0.84,0.53,1.14,1.58,1.38,2.53c1.29,5.15,2.59,10.3,3.88,15.45c0.23,0.9,0.51,1.89,1.3,2.39c1.43,0.9,3.2-0.45,4.27-1.77
			c7.06-8.71,13.91-30.93,19.06-27.52c1.5,1.04,0.98,3.34,0.29,5.03c-3.13,7.66-6.25,15.32-9.38,22.98
			c13.6-13.27,12.23-14.21,19.54-20.53c0.36-0.32,0.76-0.62,1.22-0.75c1.44-0.39,2.77,1.22,2.72,2.7c-0.05,1.49-0.99,2.77-1.86,3.98
			c-4.83,6.69-7.02,11.38-11.63,21.76c6.22-3.8,12.45-7.59,18.67-11.39c1.62-0.99,4.38-1.58,4.86,0.26
			c0.15,0.56,0.02,1.17-0.25,1.68c-2.3,4.24-7.78,7.54-22.63,17.55c6.26-1.81,12.89-2.29,19.34-1.39c6.41,4.26-11.78,7.5-18.35,9.83
			c-2.32,0.82-13.07,11.48-15.07,12.93c-4.71,3.4,1.85,0.39-3.55,2.53c-4.04,1.59-8.78-0.26-11.81-3.36
			c-3.03-3.1-4.73-7.24-6.35-11.26"/>
	</g>
</g>
<g id="B2_Body">
	<path class="st5" d="M663.73,645.12c34.98-9.75,69.97-6.79,104.95,0c2.75,0,5.15,1.88,5.82,4.55l6.93,27.9v23.1l-20.38,114.03
		c0,0-27.11-13.69-91.61,7.82c0,0-30.55,8.06-63.7-5.38c0,0,9.05-28.31,26.97-94.07c9.44-34.64,5.45-56.55,16.81-71.04
		c0.04-0.06,0.09-0.11,0.13-0.17C653.05,647.57,658.26,645.12,663.73,645.12z"/>
</g>
<g id="B2_R_Arm">
	<g>
		<path class="st14" d="M804.6,699.28l38.08,39.86c0,0,13.18,24.42-12.69,35.49c0,0-0.35,0.08-0.97,0.19
			c-9.14,1.59-18.48-1.48-24.99-8.1l-27.42-27.85L804.6,699.28z"/>
		<g>
			<g>
				<path class="st26" d="M825.6,721.01c2.76,3.04,5.52,6.08,8.28,9.12c0.34,0.38,0.9-0.18,0.56-0.56
					c-2.76-3.04-5.52-6.08-8.28-9.12C825.82,720.08,825.26,720.64,825.6,721.01L825.6,721.01z"/>
			</g>
		</g>
		<path class="st5" d="M776.63,648.77l52.96,60.31c0,0-14.7,42.54-40.19,47.15l-42.23-29.36c0,0-33.09-24.93-16.86-60.28
			C730.32,666.6,746.33,636.23,776.63,648.77z"/>
		<g>
			<g>
				<path class="st22" d="M749.21,726.32c9.51,8.48,19.54,16.37,30.03,23.62c3,2.07,6.03,4.09,9.1,6.05
					c0.43,0.27,0.82-0.41,0.4-0.68c-10.74-6.88-21.05-14.41-30.86-22.57c-2.74-2.28-5.44-4.61-8.1-6.98
					C749.39,725.42,748.83,725.98,749.21,726.32L749.21,726.32z"/>
			</g>
		</g>
	</g>
</g>
<g id="Layer_2">
	<path class="st6" d="M678.4,837.74"/>
</g>
<g id="B1_Neck">
	<g>
		<path class="st27" d="M1377.66,436.99l-1.71,18.62c-0.69,4.05,1.04,8.17,4.5,10.38c4.12,2.64,8.35,3.94,12.71,3.59
			c6.55-0.52,11.83-5.61,12.93-12.09l1.78-26.22l0.31-12.89l-30.05,10.71L1377.66,436.99z"/>
		<path class="st28" d="M1376.84,450.02c9.75-2.62,19.09-8.44,22.73-17.08c-8.57,6.27-22.26,5.77-22.26,5.77L1376.84,450.02z"/>
	</g>
</g>
<g id="B1_face">
	<g>
		<g>
			<g>
				<path class="st27" d="M1392.69,438.99c-4.54,0.73-8.47,0.77-11.89,0.49c-24.57-2.05-20.32-23.55-19.41-35.87
					c0.49-6.69-1.26-21.78-1.26-21.78l13.14-14.26l40.35,6.86l-2.81,41.35C1410.09,426.49,1402.91,435.68,1392.69,438.99
					L1392.69,438.99z"/>
				<path class="st28" d="M1387.49,377.03l11.52,6.95c4.35,2.63,7.28,7.14,7.76,12.2c0.01,0.12,0.02,0.24,0.03,0.36l1.15,15.38
					l4.13,0.29l6.12-26.91c1.17-5.14,0.92-10.53-0.9-15.48c-2.8-7.61-9.69-15.88-26.55-13.09c-22.76,3.77-7.89,15.77-4.63,19.08
					C1386.56,376.25,1387.02,376.65,1387.49,377.03z"/>
				<g>
					
						<ellipse transform="matrix(0.9995 -0.0323 0.0323 0.9995 -12.4793 45.8819)" class="st27" cx="1412.33" cy="408.77" rx="6.06" ry="6.06"/>
					<line class="st29" x1="1411.07" y1="412.8" x2="1415.16" y2="405.93"/>
					<line class="st29" x1="1410.43" y1="406.46" x2="1412.78" y2="409.29"/>
				</g>
			</g>
			
				<ellipse transform="matrix(0.0699 -0.9976 0.9976 0.0699 906.8519 1726.9391)" class="st28" cx="1379.47" cy="377.18" rx="11.23" ry="13.95"/>
			
				<ellipse transform="matrix(0.9995 -0.0323 0.0323 0.9995 -11.5526 44.2775)" class="st28" cx="1363.19" cy="379.32" rx="6.52" ry="6.52"/>
			
				<ellipse transform="matrix(0.9995 -0.0323 0.0323 0.9995 -11.0901 44.3721)" class="st28" cx="1366.33" cy="365.07" rx="11.13" ry="11.13"/>
			<path class="st28" d="M1395.21,358.34c-0.44,6.28-8.77,10.82-15.06,10.38c-6.28-0.44-11.02-5.89-10.58-12.17
				c0.17-2.44,2.78-11.24,12.17-10.58C1388.03,346.41,1395.65,352.06,1395.21,358.34z"/>
		</g>
		
			<ellipse transform="matrix(0.9995 -0.0323 0.0323 0.9995 -12.2875 45.1658)" class="st29" cx="1390.29" cy="402.49" rx="9.49" ry="9.49"/>
		<line x1="1408.2" y1="400.65" x2="1399.76" y2="403.15"/>
	</g>
	<path class="st30" d="M1379.54,408.75c0,0-0.04,4.47-3.22,4.42c-3.17-0.05-1.95,4.01,0.3,4.62"/>
	
		<ellipse transform="matrix(0.9995 -0.0323 0.0323 0.9995 -12.2405 44.3976)" class="st29" cx="1366.56" cy="400.65" rx="9.49" ry="9.49"/>
	<line class="st29" x1="1376.37" y1="401.51" x2="1379.93" y2="402.15"/>
	<path d="M1392.5,398.82l-5.57-1.34c-0.48-0.11-0.77-0.59-0.65-1.07l0.13-0.53c0.11-0.48,0.59-0.77,1.07-0.65l5.57,1.34
		c0.48,0.11,0.77,0.59,0.65,1.07l-0.13,0.53C1393.45,398.64,1392.97,398.93,1392.5,398.82z"/>
	<path d="M1370.7,396.53l-6.84,1.32c-0.15,0.03-0.29-0.07-0.31-0.21l-0.34-1.75c-0.03-0.15,0.07-0.29,0.21-0.31l6.84-1.32
		c0.15-0.03,0.29,0.07,0.31,0.21l0.34,1.75C1370.94,396.36,1370.85,396.5,1370.7,396.53z"/>
</g>
<g id="B1_Mouth">
	<path class="st29" d="M1375.24,423.81c0,0,9.53,2.06,14-4.43"/>
</g>
<g id="B1_R_Eyes">
	<circle class="st15" cx="1387.76" cy="403.93" r="1.73"/>
</g>
<g id="B1_L_Eyes">
	<circle class="st15" cx="1368.35" cy="402.4" r="1.73"/>
</g>
<g id="B1__L_Leg">
	<g>
		<path class="st14" d="M1307.14,926.05v18.74c11.84,8.9,23.94,8.54,36.26,0v-18.74H1307.14z"/>
		<path class="st6" d="M1294.09,778.45l-5.4,156.74h65.23l8.95-145.73c0,0-13.15-30.72-31.92-30.73
			C1312.18,758.72,1301.72,768.74,1294.09,778.45z"/>
		<line class="st31" x1="1355.4" y1="921.15" x2="1289.74" y2="921.15"/>
	</g>
</g>
<g id="B1__R_Leg">
	<g>
		<path class="st14" d="M1483.02,926.82l3.67,18.38c-9.87,11.04-21.8,13.06-35.56,7.1l-3.67-18.38L1483.02,926.82z"/>
		<path class="st6" d="M1401.53,785.06l36.74,159.02l67.89-13.55L1476,778.39c0,0-17.21-29.38-42.08-24.42
			C1408.21,759.1,1401.53,785.06,1401.53,785.06z"/>
		<line class="st31" x1="1505.12" y1="922.41" x2="1436.19" y2="935.18"/>
	</g>
</g>
<g id="b1_R_Shoes">
	<g>
		<g>
			<path class="st32" d="M1440.98,951.93c0,0,0.52-19.45-4.33-18.7C1431.8,933.99,1434.35,946.35,1440.98,951.93"/>
			<path class="st32" d="M1439.75,953.91c0,0-10.95-15.08-13.84-10.48S1431.95,955.22,1439.75,953.91"/>
			<g>
				<path class="st22" d="M1493.95,939.4l5.59,30.62l0.73,12.4l-76.76,9.66l-1.87-10.29c0,0,14.55-23.64,28.96-30.5l-3.7-7.32
					l11.5-7.41l4.26,11.75C1462.66,948.31,1490.79,929.43,1493.95,939.4z"/>
				<path class="st23" d="M1502.48,983.05l-1.9-13.4l-77.51,11.75c-1.29,0.19-2.13,1.63-1.87,3.18l1.54,8.33"/>
			</g>
			<line class="st33" x1="1441.62" y1="952.75" x2="1448.85" y2="954.53"/>
			<line class="st33" x1="1437.43" y1="955.32" x2="1444.39" y2="958.44"/>
		</g>
		<g>
			<g>
				<path class="st23" d="M1438.57,965.89c3.97,1.67,6.31,6.23,6.5,10.36c0.03,0.7,1.13,0.7,1.09,0c-0.22-4.68-2.86-9.54-7.3-11.42
					C1438.21,964.57,1437.93,965.62,1438.57,965.89L1438.57,965.89z"/>
			</g>
		</g>
		<g>
			<g>
				<path class="st23" d="M1485.79,954.3c1.98,1.96,2.64,5.2,1.81,7.83c-0.79,2.53-3.41,4.37-6.08,3.63
					c-2.68-0.74-4.19-3.8-4.34-6.4c-0.16-2.77,1.45-6,4.46-6.43c3.44-0.49,5.74,3.45,5.7,6.43c-0.01,0.7,1.08,0.7,1.09,0
					c0.05-3.26-2.16-7.07-5.64-7.51c-3.46-0.43-6.2,2.73-6.63,5.91c-0.43,3.16,0.97,6.98,3.88,8.56c2.85,1.55,6.38,0.28,7.98-2.45
					c1.85-3.18,1.13-7.79-1.46-10.35C1486.07,953.04,1485.29,953.81,1485.79,954.3L1485.79,954.3z"/>
			</g>
		</g>
		<g>
			<g>
				<path class="st23" d="M1448.78,955.56c2.74,0.59,5.49,1.18,8.23,1.77c-0.04-0.33-0.09-0.66-0.13-1
					c-4.45,2.55-9.76,2.8-14.49,0.86c-0.54-0.22-0.87,0.55-0.53,0.91c2.74,2.9,5.48,5.81,8.22,8.71c0.13-0.31,0.26-0.62,0.39-0.93
					c-4.92-0.32-9.83-0.65-14.75-0.97c-0.7-0.05-0.7,1.05,0,1.09c4.92,0.32,9.83,0.65,14.75,0.97c0.49,0.03,0.69-0.61,0.39-0.93
					c-2.74-2.9-5.48-5.81-8.22-8.71c-0.18,0.3-0.35,0.61-0.53,0.91c4.98,2.05,10.65,1.72,15.33-0.97c0.39-0.22,0.34-0.9-0.13-1
					c-2.74-0.59-5.49-1.18-8.23-1.77C1448.38,954.36,1448.09,955.42,1448.78,955.56L1448.78,955.56z"/>
			</g>
		</g>
	</g>
</g>
<g id="B1_L_Shoes">
	<g>
		<g>
			<path class="st32" d="M1293.68,949.31c0,0,3.03-19.22-1.87-19.1S1287.83,942.92,1293.68,949.31"/>
			<path class="st32" d="M1292.2,951.12c0,0-8.9-16.37-12.36-12.19C1276.38,943.11,1284.3,951.4,1292.2,951.12"/>
			<g>
				<path class="st22" d="M1347.83,943.75l1.57,31.08l-0.89,12.39l-77.36-0.37l-0.52-10.44c0,0,17.49-21.56,32.67-26.49l-2.72-7.74
					l12.37-5.85l2.7,12.21C1315.65,948.54,1345.99,933.46,1347.83,943.75z"/>
				<path class="st23" d="M1350.64,988.14l-0.15-13.53l-78.38,1.6c-1.3,0.03-2.33,1.34-2.27,2.91l0.45,8.46"/>
			</g>
			<line class="st33" x1="1294.21" y1="950.21" x2="1301.15" y2="952.91"/>
			<line class="st33" x1="1289.72" y1="952.22" x2="1296.22" y2="956.21"/>
		</g>
		<g>
			<g>
				<path class="st23" d="M1289.42,962.81c3.79,2.22,5.51,7.01,5.16,11.22c-0.06,0.7,1.03,0.7,1.09,0c0.38-4.59-1.6-9.76-5.71-12.16
					C1289.36,961.51,1288.81,962.46,1289.42,962.81L1289.42,962.81z"/>
			</g>
		</g>
		<g>
			<g>
				<path class="st23" d="M1337.86,957.53c1.73,2.22,1.91,5.71,0.62,8.18c-1.25,2.39-4.25,3.76-6.75,2.41
					c-2.44-1.32-3.4-4.56-3.07-7.16c0.34-2.71,2.53-5.51,5.48-5.36c3.27,0.17,4.98,4.19,4.56,7.03c-0.1,0.69,0.95,0.98,1.05,0.29
					c0.46-3.18-1.05-7.07-4.3-8.17c-3.25-1.1-6.46,1.46-7.5,4.42c-1.07,3.06-0.27,7.13,2.29,9.25c2.57,2.13,6.37,1.51,8.43-1.03
					c2.38-2.95,2.25-7.69-0.04-10.64C1338.2,956.2,1337.43,956.98,1337.86,957.53L1337.86,957.53z"/>
			</g>
		</g>
		<g>
			<g>
				<path class="st23" d="M1301.01,953.95c2.64,0.94,5.29,1.88,7.93,2.82c0-0.35,0-0.7,0-1.05c-4.74,1.95-10.04,1.57-14.48-0.97
					c-0.44-0.25-1.08,0.28-0.75,0.75c2.34,3.23,4.68,6.47,7.02,9.7c0.21-0.27,0.41-0.53,0.62-0.8c-4.83-0.96-9.66-1.92-14.5-2.88
					c-0.69-0.14-0.98,0.92-0.29,1.05c4.83,0.96,9.66,1.92,14.5,2.88c0.42,0.08,0.92-0.38,0.62-0.8c-2.34-3.23-4.68-6.47-7.02-9.7
					c-0.25,0.25-0.5,0.5-0.75,0.75c4.67,2.68,10.33,3.14,15.32,1.08c0.49-0.2,0.54-0.86,0-1.05c-2.64-0.94-5.29-1.88-7.93-2.82
					C1300.64,952.66,1300.35,953.71,1301.01,953.95L1301.01,953.95z"/>
			</g>
		</g>
	</g>
</g>
<g id="B1_L_thigh">
	<g>
		<path class="st6" d="M1294.55,775.81l18.78-142.27l91.07,13.26l-41.32,142.18c0,0-5.51,16.08-23.02,22.3
			c-11.82,4.2-25.17,1.73-34.15-7.04C1300.1,798.58,1294.94,789.66,1294.55,775.81z"/>
	</g>
</g>
<g id="B1_L_Thigh">
	<g>
		<path class="st6" d="M1401.19,779.88l-22.84-137.22l92.47,1.93l5.18,135.43c0,0-13.81,30.36-37.62,30.31
			C1402.16,810.26,1401.19,779.88,1401.19,779.88z"/>
		<line class="st34" x1="1391.64" y1="708.15" x2="1371.35" y2="684.94"/>
	</g>
</g>
<g id="B1_L_Arm">
	<path class="st5" d="M1358.28,499.58c11.88-27.07-23.7-49.62-43.3-27.49c-0.69,0.78-1.38,1.58-2.08,2.42
		c-31.53,37.93-56.09,73.4-46.97,89.01c14.72,25.21,39.71,17.58,57.1-8.17C1333.99,539.12,1349.68,519.19,1358.28,499.58z"/>
</g>
<g id="B1_L_Hand">
	<g>
		<g>
			<path class="st27" d="M1225.84,513.1l30.06-16.86l-16.95-23.31c-4.66-8.3-10.16-9.26-18.46-4.6l0,0
				c-8.3,4.66-5.26,15.16-0.6,23.46L1225.84,513.1z"/>
			<g>
				<path class="st5" d="M1252.35,481.99l-42.93,13.28c0,0,60.55,116.83,93.32,77.74c25.91-30.91-15.97-59.2-15.97-59.2
					L1252.35,481.99z"/>
				<path class="st31" d="M1291.85,524.75c0,0-3.66-10.56-11.19-17.53"/>
			</g>
		</g>
		<line class="st31" x1="1252.35" y1="481.99" x2="1209.42" y2="495.27"/>
	</g>
</g>
<g id="B1_L_Finger">
	<g>
		<path class="st27" d="M1239.4,470.75c0.65-12.22,1.31-24.45,1.96-36.67c0.07-1.39,0.13-2.86-0.51-4.09
			c-0.65-1.23-2.27-2.07-3.47-1.37c-0.86,0.49-1.2,1.53-1.48,2.48c-1.5,5.09-2.99,10.19-4.49,15.28c-0.26,0.89-0.59,1.87-1.4,2.33
			c-1.47,0.84-3.18-0.58-4.19-1.94c-6.71-8.99-12.68-31.46-17.96-28.26c-1.54,0.97-1.11,3.3-0.48,5.02
			c2.82,7.78,5.64,15.56,8.46,23.33c-13.07-13.8-11.66-14.69-18.72-21.29c-0.35-0.33-0.73-0.65-1.19-0.8
			c-1.42-0.45-2.82,1.11-2.83,2.59c-0.01,1.49,0.88,2.81,1.7,4.05c4.56,6.87,6.56,11.65,10.76,22.21
			c-6.07-4.04-12.14-8.08-18.21-12.12c-1.58-1.05-4.31-1.75-4.87,0.07c-0.17,0.55-0.07,1.17,0.19,1.69
			c2.13,4.33,7.47,7.84,21.91,18.44c-6.18-2.06-12.79-2.8-19.27-2.16c-6.58,4,11.48,7.96,17.94,10.55
			c2.29,0.91,12.61,11.99,14.54,13.51c4.58,3.59-1.87,0.32,3.45,2.67c3.97,1.75,8.78,0.09,11.94-2.89c3.15-2.98,5.01-7.05,6.79-11"
			/>
	</g>
</g>
<g id="B1_Body">
	<path class="st3" d="M1448.05,465.6c0,0-68.44-34.94-127.78,6.76v181.72l133.58,1.03L1448.05,465.6z"/>
	<path class="st27" d="M1409.4,452.89c0,0-4.56,16.69-22.61,14.23c-15.79-2.15-12.75-14.23-12.75-14.23
		S1382.14,447.74,1409.4,452.89z"/>
	<path class="st5" d="M1295.18,670.14h38.77h37.4c0,0-2.82-168.85,2.68-217.25c0,0-46.87,3.87-56.76,20.35L1295.18,670.14z"/>
	<path class="st5" d="M1473.63,664.75l-0.18,0.06c-10.9,3.54-22.28,5.34-33.74,5.34h-42.57c0,0,10.8-180.51,9.41-217.25
		c0,0,36.17-0.04,52,14.95L1473.63,664.75z"/>
	<line class="st31" x1="1311.45" y1="532.02" x2="1312.33" y2="568.55"/>
	<path class="st31" d="M1397.51,656.47"/>
	<path class="st31" d="M1474.43,656.47"/>
	<path class="st31" d="M1371.72,656.47"/>
</g>
<g id="Pencil">
	<g>
		
			<rect x="1086.38" y="463.9" transform="matrix(-0.7898 -0.6133 0.6133 -0.7898 1943.2644 1656.7764)" class="st2" width="338.26" height="63.04"/>
		<path class="st1" d="M1356.93,614.1l19.79,15.37c8.9,6.91,21.71,5.3,28.62-3.6l13.65-17.58c6.91-8.9,5.3-21.71-3.6-28.62
			l-19.79-15.37L1356.93,614.1z"/>
		<polygon class="st1" points="1141.26,366.79 1102.59,416.59 1059.54,344.9 		"/>
		<polygon class="st22" points="1079.29,350.19 1069.94,362.23 1059.54,344.9 		"/>
		<line class="st31" x1="1418.99" y1="608.29" x2="1130.26" y2="380.96"/>
		<line class="st31" x1="1406.13" y1="624.85" x2="1117.39" y2="397.52"/>
	</g>
</g>
<g id="B1_R_Arm">
	<g>
		<path class="st5" d="M1444.16,460.14c0,0-49.61,8.32-26.38,51.83c26.58,49.79,44.29,69.52,61.75,74.2
			c17.46,4.68,39.57-18.03,25-45.48C1489.96,513.24,1461.93,460.64,1444.16,460.14z"/>
		<line class="st31" x1="1426.81" y1="529.39" x2="1436.53" y2="544.52"/>
	</g>
</g>
<g id="B1_R_Hand">
	<g>
		<path class="st27" d="M1398.82,615.18l31.12-10.95l-15.91-32.7l-30.45,16.91c-8.33,4.05-12.02,12.1-7.97,20.43l1.23,2.53
			C1380.9,619.74,1390.49,619.23,1398.82,615.18z"/>
		<g>
			<path class="st5" d="M1384.47,580.26l35.06,30.75c0,0,114.06-19.95,86.55-62.91c-21.75-33.97-61.26-2.46-61.26-2.46
				L1384.47,580.26z"/>
			<path class="st31" d="M1439.89,548.46l-55.42,31.8l35.06,30.75c0,0,99.02-22.86,89.52-51.89"/>
		</g>
	</g>
</g>
<g id="B1_R_Finger">
	<g>
		<path class="st27" d="M1390.22,589.52c-15.44-6.03-30.44-11.85-37.29-11.68c-1.03,0.03-3.33,0.72-3.87,1.88
			c-0.44,0.96,0.73,3.25,1.54,3.94c3.46,2.92,7.45,5.21,11.72,6.73c-6.56,1.34-11.78,0.75-18.38-0.39
			c-4.38-0.76-10.69-2.07-14.84-1.96c-2.63,0.07-3.66,3.41-1.6,5.03c2.17,1.7,5.37,2.69,8.16,3.22c4.84,0.91,9.69,1.82,14.53,2.73
			c-7.47-0.24-14.95,0.08-22.37,0.96c-1.12,0.13-3.5,1.19-3.78,2.69c-0.24,1.31,1.69,2.71,3.01,2.92
			c15.75,2.56,12.01,0.5,24.23,2.19c-9.81,1.67-12.58,1.34-18.95,2.53c-1.44,0.27-3.4-0.13-3.94,1.47c-0.37,1.08-0.04,2.28,0.7,3.14
			c1.45,1.69,4.47,1.61,6.57,1.73c5.95,0.36,11.18,0.16,16.96-1.3c0.02-0.01,0.04,0.02,0.02,0.03c-3.9,1.43-9.18,2.43-13.19,4.68
			c-2.22,1.24-1.72,4.58,0.78,5.06c1.6,0.31,3,0.43,3,0.43c19.07-1.8,30.54-0.95,43.89-7.18c1.22-0.57,6.04-5.96,6.8-7.07
			c0.69-1,0.8-2.27,0.83-3.48c0.16-6.13-1.23-12.3-4.02-17.76"/>
	</g>
</g>
<g id="Shape">
	<path class="st7" d="M1462.26,322.45h-281.14c-11.21,0-20.3-9.09-20.3-20.3v0c0-11.21,9.09-20.3,20.3-20.3h281.14
		c11.21,0,20.3,9.09,20.3,20.3v0C1482.56,313.36,1473.47,322.45,1462.26,322.45z"/>
</g>
<g id="Chart">
	<rect x="485.93" y="549.61" class="st7" width="150.36" height="83.72"/>
</g>
<g id="Lines">
	<rect x="609.03" y="565.2" class="st1" width="7.38" height="54.53"/>
	<rect x="596.34" y="565.2" class="st1" width="7.38" height="54.53"/>
	<rect x="583.65" y="565.2" class="st1" width="7.38" height="54.53"/>
	<rect x="570.96" y="565.2" class="st1" width="7.38" height="54.53"/>
	<rect x="558.27" y="565.2" class="st1" width="7.38" height="54.53"/>
	<rect x="545.58" y="565.2" class="st1" width="7.38" height="54.53"/>
	<rect x="532.89" y="565.2" class="st1" width="7.38" height="54.53"/>
	<rect x="520.2" y="565.2" class="st1" width="7.38" height="54.53"/>
	<rect x="507.51" y="565.2" class="st1" width="7.38" height="54.53"/>
</g>
<g id="Line">
	<rect x="145.99" y="988.06" class="st22" width="1590.13" height="4.58"/>
</g>
</svg>
